<svg xmlns="http://www.w3.org/2000/svg" fill="none" viewBox="0 0 24 24" stroke-width="1.5" stroke="currentColor">
  <path stroke-linecap="round" stroke-linejoin="round" d="M3.98 8.223A10.477 10.477 0 0 0 1.934 12C3.226 16.338 7.244 19.5 12 19.5c.993 0 1.953-.138 2.863-.395M6.228 6.228A10.45 10.45 0 0 1 12 4.5c4.756 0 8.773 3.162 10.065 7.498a10.523 10.523 0 0 1-4.293 5.774M6.228 6.228 3 3m3.228 3.228L3.98 8.223m0 0L6.228 6.228M3.98 8.223 12 12m-8.02-3.777L12 12m0 0 8.02 3.777M12 12l-8.02 3.777m0 0L3 21m5.98-5.223L12 12m0 0 8.02 3.777M12 12l8.02 3.777M12 12l-8.02-3.777" />
  <path stroke-linecap="round" stroke-linejoin="round" d="m1.5 1.5 21 21" stroke-width="2" />
</svg>
